<?xml version="1.0" encoding="UTF-8" standalone="no"?>
<!-- Created with Inkscape (http://www.inkscape.org/) -->

<svg
   width="103.51921mm"
   height="108.60365mm"
   viewBox="0 0 103.51921 108.60365"
   version="1.1"
   id="svg5"
   xml:space="preserve"
   inkscape:export-filename="logoblackandwhite.svg"
   inkscape:export-xdpi="14.96819"
   inkscape:export-ydpi="14.96819"
   sodipodi:docname="logosvg.svg"
   xmlns:inkscape="http://www.inkscape.org/namespaces/inkscape"
   xmlns:sodipodi="http://sodipodi.sourceforge.net/DTD/sodipodi-0.dtd"
   xmlns:xlink="http://www.w3.org/1999/xlink"
   xmlns="http://www.w3.org/2000/svg"
   xmlns:svg="http://www.w3.org/2000/svg"><sodipodi:namedview
     id="namedview7"
     pagecolor="#ffffff"
     bordercolor="#000000"
     borderopacity="0.25"
     inkscape:showpageshadow="2"
     inkscape:pageopacity="0.0"
     inkscape:pagecheckerboard="0"
     inkscape:deskcolor="#d1d1d1"
     inkscape:document-units="mm"
     showgrid="false"
     inkscape:zoom="0.60067202"
     inkscape:cx="428.68652"
     inkscape:cy="735.01009"
     inkscape:window-width="1126"
     inkscape:window-height="947"
     inkscape:window-x="1845"
     inkscape:window-y="26"
     inkscape:window-maximized="0"
     inkscape:current-layer="g404" /><defs
     id="defs2"><linearGradient
       id="linearGradient3462"
       inkscape:swatch="solid"><stop
         style="stop-color:#4d7e4d;stop-opacity:1;"
         offset="0"
         id="stop3460" /></linearGradient></defs><g
     inkscape:label="Lager 1"
     inkscape:groupmode="layer"
     id="layer1"
     transform="translate(-49.249376,-119.87148)"><g
       id="g762"
       transform="rotate(42.575239,67.826467,172.65367)"><g
         id="g404"><g
           id="g901"><g
             id="g887"><g
               id="g432"><g
                 id="g1268"><g
                   id="g1376"><ellipse
                     style="opacity:0.85;fill:#ffffff;fill-opacity:0.914179;stroke-width:90.3729;stroke-linejoin:bevel;stroke-miterlimit:0;paint-order:stroke fill markers"
                     id="path234"
                     cx="-66.957237"
                     cy="-166.36507"
                     rx="40.804893"
                     ry="36.333122"
                     transform="rotate(170.63076)" /><text
                     xml:space="preserve"
                     style="font-style:normal;font-variant:normal;font-weight:normal;font-stretch:normal;font-size:11.2889px;font-family:'Andale Mono';-inkscape-font-specification:'Andale Mono';opacity:0.85;fill:#000000;stroke-width:90.3729;stroke-linejoin:bevel;stroke-miterlimit:0;paint-order:stroke fill markers"
                     id="text290"
                     transform="matrix(1.2073269,0.24763772,-0.02594359,1.2609222,-9.1879466,-57.012385)"><textPath
                       xlink:href="#path234"
                       id="textPath398"
                       style="font-style:normal;font-variant:normal;font-weight:normal;font-stretch:normal;font-size:11.2889px;font-family:'Andale Mono';-inkscape-font-specification:'Andale Mono';fill:#000000;stroke-width:90.373"> <tspan
   style="font-style:normal;font-variant:normal;font-weight:normal;font-stretch:normal;font-size:15.9778px;font-family:'Apple Braille';-inkscape-font-specification:'Apple Braille';fill:#000000;fill-opacity:0.716418"
   id="tspan5184">CultActivi</tspan></textPath></text><path
                     style="opacity:0.85;fill:#1a1a1a;fill-opacity:1;stroke:none;stroke-width:90.3729;stroke-linejoin:bevel;stroke-miterlimit:0;stroke-opacity:1;paint-order:stroke fill markers"
                     d="m 107.22636,211.93306 -25.859038,1.51797 -19.84729,-20.20326 3.20107,-2.81242 4.02235,-1.63865 2.73922,0.18299 2.90305,1.06092 3.04421,2.47389 6.74589,5.24361 2.70175,-2.09658 4.4367,-0.34812 6.39036,-0.60039 3.777498,-2.18501 5.48237,-1.30884 5.02446,0.0118 3.69993,1.22866 2.47912,1.57897 3.91255,4.11864 -1.96325,2.06084 -3.58099,-4.0376 -3.00848,-1.73538 -4.64758,-1.00079 -3.57576,0.58557 -3.73218,1.11495 -2.673439,1.42778 -1.371574,0.74591 -9.949135,0.78469 -1.17943,0.95505 -1.4696,1.47875 -0.46358,1.45435 -0.15075,0.39562 16.316838,-0.85005 0.57077,0.76116 -0.44093,0.91932 -0.63307,0.71019 -0.604746,0.0414 -17.852232,0.71803 0.14334,-1.80291 0.8178,-1.90835 0.17341,-0.93065 -10.30815,-8.14143 -2.79194,-0.52022 -2.76754,0.4858 -1.73146,1.33367 17.33811,17.75202 27.196618,-1.46132 z"
                     id="path5047" /><path
                     style="opacity:0.85;fill:#1a1a1a;fill-opacity:1;stroke:none;stroke-width:90.3729;stroke-linejoin:bevel;stroke-miterlimit:0;stroke-opacity:1;paint-order:stroke fill markers"
                     d="m 152.25903,170.8855 3.61401,-25.52056 -18.49123,-21.38996 -1.83946,1.47236 -1.91076,2.26336 -1.24098,2.51859 -0.28301,2.21886 0.4984,2.51663 1.47654,2.63366 6.00301,9.13976 -1.83208,2.19107 -0.9496,1.88815 -1.27983,8.79355 -1.80553,2.45688 -1.38236,2.28574 -0.83699,2.80037 -0.75093,3.4468 -0.24367,2.18272 0.20925,2.20189 0.7015,2.18493 0.81314,2.22746 1.13426,1.78733 3.41042,3.39615 2.00641,-1.84339 -3.46991,-3.77678 -1.27565,-2.02018 -0.8874,-4.04554 0.50653,-4.81834 0.91887,-2.94815 1.54292,-2.50581 1.76299,-2.34524 1.51489,-9.88012 0.44874,-0.77502 0.86871,-0.87068 0.82297,-0.68356 0.77404,-0.42095 0.8038,-0.23064 1.02706,-0.14556 -2.29902,15.89665 0.27637,0.61668 0.51562,0.32432 0.45612,-0.0563 0.55078,-0.50603 0.62627,-0.50283 2.49695,-17.89225 -0.44013,-0.32112 -0.83035,-0.0352 -1.06001,0.0307 -1.22696,0.40177 -1.41728,0.43153 -7.26587,-11.46189 -0.33268,-1.07279 -0.0243,-1.21098 0.20851,-1.35236 0.58595,-1.33638 0.92083,-1.20877 0.672,-0.68995 16.28638,18.99012 -3.74383,26.80064 z"
                     id="path5080" /><ellipse
                     style="opacity:0.85;fill:#ffffff;fill-opacity:0.914179;stroke-width:86.0627;stroke-linejoin:bevel;stroke-miterlimit:0;paint-order:stroke fill markers"
                     id="path234-9"
                     cx="-66.313721"
                     cy="-166.05673"
                     rx="38.79882"
                     ry="34.653751"
                     transform="matrix(-0.98723014,0.1593005,-0.16627926,-0.9860787,0,0)" /><path
                     style="opacity:0.8;fill:#ff0000;fill-opacity:0.708955;stroke:none;stroke-width:91.3068;stroke-linejoin:bevel;stroke-miterlimit:0;stroke-opacity:1;paint-order:stroke fill markers"
                     d="M 101.07346,141.0013 C 87.354979,130.36795 46.633485,132.68394 87.493013,129.71462 128.35254,126.74528 101.07346,141.0013 101.07346,141.0013 Z"
                     id="path8351" /><path
                     style="opacity:0.8;fill:#ff0000;fill-opacity:0.708955;stroke:none;stroke-width:91.3068;stroke-linejoin:bevel;stroke-miterlimit:0;stroke-opacity:1;paint-order:stroke fill markers"
                     d="m 85.081816,169.22028 c 14.354532,9.75767 54.852514,4.90823 14.257489,10.41833 -40.595034,5.51013 -14.257489,-10.41833 -14.257489,-10.41833 z"
                     id="path8351-4" /><ellipse
                     style="opacity:0.8;fill:#ff0000;fill-opacity:0.708955;stroke:none;stroke-width:90.3729;stroke-linejoin:bevel;stroke-miterlimit:0;stroke-opacity:1;paint-order:stroke fill markers"
                     id="path8427"
                     cx="-35.831963"
                     cy="176.32782"
                     transform="rotate(-42.575239)"
                     rx="7.5667238"
                     ry="7.013061" /></g></g></g></g></g></g></g></g></svg>
