<?xml version="1.0" encoding="UTF-8" standalone="no"?>
<!-- Created with Inkscape (http://www.inkscape.org/) -->

<svg
   width="128.76514mm"
   height="121.19801mm"
   viewBox="0 0 128.76514 121.19801"
   version="1.1"
   id="svg5"
   xml:space="preserve"
   inkscape:export-filename="logoculturalactivities.png"
   inkscape:export-xdpi="13.361449"
   inkscape:export-ydpi="13.361449"
   sodipodi:docname="logosvgculturalactivities.svg"
   inkscape:version="1.2.2 (b0a84865, 2022-12-01)"
   xmlns:inkscape="http://www.inkscape.org/namespaces/inkscape"
   xmlns:sodipodi="http://sodipodi.sourceforge.net/DTD/sodipodi-0.dtd"
   xmlns:xlink="http://www.w3.org/1999/xlink"
   xmlns="http://www.w3.org/2000/svg"
   xmlns:svg="http://www.w3.org/2000/svg"><sodipodi:namedview
     id="namedview7"
     pagecolor="#ffffff"
     bordercolor="#000000"
     borderopacity="0.25"
     inkscape:showpageshadow="2"
     inkscape:pageopacity="0.0"
     inkscape:pagecheckerboard="0"
     inkscape:deskcolor="#d1d1d1"
     inkscape:document-units="mm"
     showgrid="false"
     inkscape:zoom="0.60067202"
     inkscape:cx="430.35133"
     inkscape:cy="491.949"
     inkscape:window-width="1126"
     inkscape:window-height="947"
     inkscape:window-x="1568"
     inkscape:window-y="28"
     inkscape:window-maximized="0"
     inkscape:current-layer="g1376" /><defs
     id="defs2"><rect
       x="252.50508"
       y="544.07172"
       width="143.69073"
       height="58.592339"
       id="rect8285" /><linearGradient
       id="linearGradient3462"
       inkscape:swatch="solid"><stop
         style="stop-color:#4d7e4d;stop-opacity:1;"
         offset="0"
         id="stop3460" /></linearGradient></defs><g
     inkscape:label="Lager 1"
     inkscape:groupmode="layer"
     id="layer1"
     transform="translate(-35.758733,-107.27712)"><g
       id="g762"
       transform="rotate(42.575239,67.826467,172.65367)"><text
         xml:space="preserve"
         transform="matrix(0.1948364,-0.17900592,0.17900592,0.1948364,-77.116173,100.78093)"
         id="text8283"
         style="font-style:normal;font-variant:normal;font-weight:normal;font-stretch:normal;font-size:42.6667px;font-family:'Andale Mono';-inkscape-font-specification:'Andale Mono';text-align:center;white-space:pre;shape-inside:url(#rect8285);display:inline;opacity:0.8;fill:#000000;fill-opacity:0.708955;stroke:none;stroke-width:341.567;stroke-linejoin:bevel;stroke-miterlimit:0;stroke-opacity:1;paint-order:stroke fill markers" /><text
         xml:space="preserve"
         style="font-style:normal;font-variant:normal;font-weight:normal;font-stretch:normal;font-size:11.2889px;font-family:'Andale Mono';-inkscape-font-specification:'Andale Mono';text-align:center;text-anchor:middle;opacity:0.8;fill:#000000;fill-opacity:0.708955;stroke:none;stroke-width:90.3729;stroke-linejoin:bevel;stroke-miterlimit:0;stroke-opacity:1;paint-order:stroke fill markers"
         x="-38.969391"
         y="173.00584"
         id="text8291"
         transform="rotate(-42.575239)"><tspan
           sodipodi:role="line"
           id="tspan8289"
           style="stroke-width:90.373"
           x="-38.969391"
           y="173.00584" /></text><g
         id="g404"><g
           id="g901"><g
             id="g887"><g
               id="g432"><g
                 id="g1268"><g
                   id="g1376"><ellipse
                     style="opacity:0.85;fill:#ffffff;fill-opacity:0.914179;stroke-width:98.8422;stroke-linejoin:bevel;stroke-miterlimit:0;paint-order:stroke fill markers"
                     id="path234"
                     cx="-64.515564"
                     cy="-158.68983"
                     rx="45.014141"
                     ry="39.397999"
                     transform="matrix(-0.98329403,0.1820243,-0.14317125,-0.98969793,0,0)" /><text
                     xml:space="preserve"
                     style="font-style:normal;font-variant:normal;font-weight:normal;font-stretch:normal;font-size:11.2889px;font-family:'Andale Mono';-inkscape-font-specification:'Andale Mono';opacity:0.85;fill:#000000;stroke-width:90.3729;stroke-linejoin:bevel;stroke-miterlimit:0;paint-order:stroke fill markers"
                     id="text290"
                     transform="matrix(0.7797058,-0.95447452,1.1048423,0.6082116,-140.13898,138.83234)"><textPath
                       xlink:href="#path234"
                       id="textPath398"
                       style="font-style:normal;font-variant:normal;font-weight:normal;font-stretch:normal;font-size:11.2889px;font-family:'Andale Mono';-inkscape-font-specification:'Andale Mono';fill:#000000;stroke-width:90.373"> Kulturella Aktiviteter</textPath></text><path
                     style="opacity:0.85;fill:#1a1a1a;fill-opacity:1;stroke:none;stroke-width:90.3729;stroke-linejoin:bevel;stroke-miterlimit:0;stroke-opacity:1;paint-order:stroke fill markers"
                     d="m 107.22636,211.93306 -25.859038,1.51797 -19.84729,-20.20326 3.20107,-2.81242 4.02235,-1.63865 2.73922,0.18299 2.90305,1.06092 3.04421,2.47389 6.74589,5.24361 2.70175,-2.09658 4.4367,-0.34812 6.39036,-0.60039 3.777498,-2.18501 5.48237,-1.30884 5.02446,0.0118 3.69993,1.22866 2.47912,1.57897 3.91255,4.11864 -1.96325,2.06084 -3.58099,-4.0376 -3.00848,-1.73538 -4.64758,-1.00079 -3.57576,0.58557 -3.73218,1.11495 -2.673439,1.42778 -1.371574,0.74591 -9.949135,0.78469 -1.17943,0.95505 -1.4696,1.47875 -0.46358,1.45435 -0.15075,0.39562 16.316838,-0.85005 0.57077,0.76116 -0.44093,0.91932 -0.63307,0.71019 -0.604746,0.0414 -17.852232,0.71803 0.14334,-1.80291 0.8178,-1.90835 0.17341,-0.93065 -10.30815,-8.14143 -2.79194,-0.52022 -2.76754,0.4858 -1.73146,1.33367 17.33811,17.75202 27.196618,-1.46132 z"
                     id="path5047" /><path
                     style="opacity:0.85;fill:#1a1a1a;fill-opacity:1;stroke:none;stroke-width:90.3729;stroke-linejoin:bevel;stroke-miterlimit:0;stroke-opacity:1;paint-order:stroke fill markers"
                     d="m 152.25903,170.8855 3.61401,-25.52056 -18.49123,-21.38996 -1.83946,1.47236 -1.91076,2.26336 -1.24098,2.51859 -0.28301,2.21886 0.4984,2.51663 1.47654,2.63366 6.00301,9.13976 -1.83208,2.19107 -0.9496,1.88815 -1.27983,8.79355 -1.80553,2.45688 -1.38236,2.28574 -0.83699,2.80037 -0.75093,3.4468 -0.24367,2.18272 0.20925,2.20189 0.7015,2.18493 0.81314,2.22746 1.13426,1.78733 3.41042,3.39615 2.00641,-1.84339 -3.46991,-3.77678 -1.27565,-2.02018 -0.8874,-4.04554 0.50653,-4.81834 0.91887,-2.94815 1.54292,-2.50581 1.76299,-2.34524 1.51489,-9.88012 0.44874,-0.77502 0.86871,-0.87068 0.82297,-0.68356 0.77404,-0.42095 0.8038,-0.23064 1.02706,-0.14556 -2.29902,15.89665 0.27637,0.61668 0.51562,0.32432 0.45612,-0.0563 0.55078,-0.50603 0.62627,-0.50283 2.49695,-17.89225 -0.44013,-0.32112 -0.83035,-0.0352 -1.06001,0.0307 -1.22696,0.40177 -1.41728,0.43153 -7.26587,-11.46189 -0.33268,-1.07279 -0.0243,-1.21098 0.20851,-1.35236 0.58595,-1.33638 0.92083,-1.20877 0.672,-0.68995 16.28638,18.99012 -3.74383,26.80064 z"
                     id="path5080" /><path
                     style="opacity:0.85;fill:#ff5555;stroke-width:39.0998;stroke-linejoin:bevel;stroke-miterlimit:0;paint-order:stroke fill markers"
                     d="m 79.951719,125.20239 -3.220449,0.38571 -1.033163,0.94922 -0.02284,1.02271 -1.195196,0.66597 1.41394,2.6293 -0.875393,0.60785 0.642666,1.02019 1.611326,0.38557 -0.09879,0.64073 1.703658,1.10606 -0.342559,0.35403 -0.117296,1.56126 -0.741791,0.11191 -0.302889,0.86754 -0.638409,-0.39556 -1.213033,0.60379 -0.642267,0.90435 0.495348,0.3895 -0.03003,0.95075 0.330384,0.6589 -0.58062,0.4156 0.01752,0.55353 0.590874,0.79278 -1.291057,0.75403 -1.161577,1.32255 -2.311569,-1.25465 -0.32406,-0.5665 -1.663714,-0.35708 -0.503402,-0.44103 -0.288578,-1.40442 -2.334871,-1.42965 -0.622628,0.19884 0.198245,0.87852 -0.912871,1.25118 -0.528165,-0.33971 -1.028306,1.31795 -0.811751,0.31368 0.308418,1.66118 0.450412,0.72541 -0.393895,1.32434 0.391033,1.64421 1.302039,1.88752 -0.439295,0.46253 0.0023,0.43004 -0.402415,0.0751 -0.659374,-0.86734 -0.993888,-0.46179 -0.0677,0.63181 -0.476107,0.12316 -0.129879,0.64965 0.656512,0.6932 -0.30629,0.22247 -1.030166,-0.33025 -0.760228,0.30562 0.236255,0.7061 -0.884312,0.57676 1.16191,1.3288 0.07276,0.69919 0.378185,0.49714 0.801031,0.42292 0.31168,0.61717 -0.247307,0.52184 1.019451,1.06685 0.292972,0.57543 -0.19032,0.62662 0.42864,2.68995 0.303626,0.56565 -0.247907,0.77773 0.342503,0.37279 -0.34603,0.43577 0.13294,0.48676 -0.586413,0.79411 0.663102,1.02105 -0.491953,0.25556 0.0086,0.52244 0.588544,1.08954 -0.04533,1.55408 0.577361,0.62842 1.208307,0.71656 4.16474,1.00553 -0.05246,0.75531 2.529654,2.38992 0.835319,0.0968 1.484039,0.97392 0.542012,0.0127 1.004806,0.68746 0.373255,0.85523 0.482699,0.20469 0.195116,0.46892 0.651389,0.089 0.796239,-0.67262 0.903952,-1.28227 0.420921,-0.99562 0.746454,-0.70543 0.287916,-0.75557 0.734933,-0.67522 -0.164563,-0.94875 -0.308816,-0.44303 0.364736,-0.39402 0.597263,0.15837 1.244122,-0.61271 -0.04833,-0.30915 3.129584,-1.38252 0.716489,-0.4815 1.618248,0.22208 1.196925,-0.70685 1.070241,-0.37438 0.127281,-0.58835 -0.396822,-1.26569 0.146591,-0.8025 1.034038,-0.96964 0.30421,0.30976 0.51213,-0.49015 -0.29729,-0.47324 0.19118,-0.64706 0.71876,-0.0515 0.0125,-0.77747 0.34403,-0.63035 1.04262,-0.44721 -0.40321,-0.63129 0.85436,-0.35281 0.6836,0.2951 0.43842,-0.4421 1.06325,0.51591 0.73,-0.31714 1.438303,0.60346 0.82181,-0.0676 0.885758,-0.8531 0.58635,-0.0673 0.37945,-0.74144 -1.5849,-2.94366 0.0231,-0.78725 -0.485228,-0.87021 0.21709,-0.53335 -0.81307,-0.86362 -0.55712,-1.58982 0.54207,-0.71409 -1.176813,-1.94365 0.57743,-0.0984 0.0732,-0.51898 -0.551203,-0.27926 -0.22514,0.48183 -1.59701,-2.65753 -0.77913,-0.69839 -0.54161,-1.23087 -0.26063,-1.82295 -1.01525,0.28458 -1.31049,-0.72088 -0.28,-0.88198 -0.86088,-0.70185 0.12848,-1.10013 -0.836118,-0.80317 0.547538,-0.60125 -1.09647,-2.39066 -0.710368,-0.38837 -1.577371,-0.22035 0.677084,-0.75956 0.0438,-0.55093 -0.519499,-0.54408 -0.325331,0.67209 -0.701178,-0.12183 -0.355417,-0.79305 0.185732,-0.75989 -0.683262,-0.78647 -1.139876,0.0848 -1.591752,-0.36427 -0.231593,-1.29964 0.882583,-0.53588 0.892902,-0.0543 -0.788586,-1.20039 -1.262964,-1.1181 -1.046277,-0.4333 0.157238,-0.81229 -1.317749,-0.066 z"
                     id="path356" /><path
                     style="opacity:0.85;fill:#ff5555;stroke-width:278.589;stroke-linejoin:bevel;stroke-miterlimit:0;paint-order:stroke fill markers"
                     d="m 96.771895,110.53881 -1.2584,-0.80415 -0.23552,0.61777 -0.75971,-0.0814 -0.0841,1.1166 0.23921,1.90579 1.87684,2.47977 -0.25216,1.011 0.99126,0.71897 0.9731,1.72759 1.30976,3.66209 -0.0392,1.21696 1.878385,3.89544 -0.93525,0.88438 -0.0959,1.10379 1.00874,2.04912 1.89417,5.55789 1.13131,1.7712 0.46502,2.09997 0.90747,1.2447 2.70288,2.73643 0.50944,-0.11391 3.9455,4.49989 0.77908,0.20534 1.22212,1.66417 0.20499,-1.93619 -2.13961,-5.28517 -1.13864,-0.72523 -0.75886,-2.13702 -1.15205,-2.15369 -1.0753,-1.35033 0.0795,-1.58454 -0.68223,-0.45963 -3.79216,-6.95536 0.49159,-0.85312 -0.46958,-1.41084 -0.83849,-0.83566 -0.21794,-0.95703 -1.71374,-1.96829 0.20037,-1.53019 -1.09684,-0.55114 0.53475,-0.42055 -1.24962,-2.46556 -0.787925,-2.32291 0.0324,-0.76182 -1.56316,-1.72873 -0.80713,-0.41576 -0.46505,-1.22601 z"
                     id="path402" /></g></g></g></g></g></g></g></g></svg>
